<svg width="249" height="127" viewBox="0 0 249 127" fill="none" xmlns="http://www.w3.org/2000/svg">
<rect x="13" width="223" height="78" rx="8" fill="#0057A5"/>
<rect x="22.5" y="8.5" width="203" height="62" rx="7.5" stroke="white" stroke-width="3"/>
<path d="M105.935 22.7045H108.032C108.918 22.7045 109.704 22.8996 110.39 23.2898C111.079 23.6761 111.619 24.2197 112.009 24.9205C112.403 25.6174 112.6 26.428 112.6 27.3523C112.6 28.2689 112.403 29.0739 112.009 29.767C111.619 30.4602 111.079 31.0019 110.39 31.392C109.704 31.7784 108.918 31.9716 108.032 31.9716H105.935C105.049 31.9716 104.261 31.7803 103.571 31.3977C102.882 31.0114 102.34 30.4735 101.946 29.7841C101.556 29.0947 101.361 28.2898 101.361 27.3693C101.361 26.4413 101.558 25.6269 101.952 24.9261C102.346 24.2254 102.886 23.6799 103.571 23.2898C104.261 22.8996 105.049 22.7045 105.935 22.7045ZM105.935 24.2216C105.329 24.2216 104.812 24.3485 104.384 24.6023C103.956 24.8523 103.628 25.2121 103.401 25.6818C103.174 26.1515 103.06 26.714 103.06 27.3693C103.06 28.0095 103.174 28.5606 103.401 29.0227C103.632 29.4811 103.962 29.8352 104.39 30.0852C104.818 30.3314 105.333 30.4545 105.935 30.4545H108.037C108.64 30.4545 109.153 30.3314 109.577 30.0852C110.005 29.8352 110.331 29.4792 110.554 29.017C110.782 28.5511 110.895 27.9962 110.895 27.3523C110.895 26.7045 110.782 26.1477 110.554 25.6818C110.331 25.2121 110.005 24.8523 109.577 24.6023C109.153 24.3485 108.64 24.2216 108.037 24.2216H105.935ZM107.85 21.1591V33.4773H106.128V21.1591H107.85ZM113.183 33V21.3636H120.479V22.875H114.939V26.4205H120.098V27.9261H114.939V31.4886H120.547V33H113.183ZM121.224 33V21.3636H125.371C126.277 21.3636 127.027 21.5284 127.621 21.858C128.216 22.1875 128.661 22.6383 128.957 23.2102C129.252 23.7784 129.4 24.4186 129.4 25.1307C129.4 25.8466 129.25 26.4905 128.951 27.0625C128.656 27.6307 128.209 28.0814 127.61 28.4148C127.015 28.7443 126.267 28.9091 125.366 28.9091H122.513V27.4205H125.207C125.779 27.4205 126.243 27.322 126.599 27.125C126.955 26.9242 127.216 26.6515 127.383 26.3068C127.549 25.9621 127.633 25.5701 127.633 25.1307C127.633 24.6913 127.549 24.3011 127.383 23.9602C127.216 23.6193 126.953 23.3523 126.593 23.1591C126.237 22.9659 125.767 22.8693 125.184 22.8693H122.979V33H121.224ZM129.858 21.3636H131.989L135.693 30.4091H135.83L139.534 21.3636H141.665V33H139.994V24.5795H139.887L136.455 32.983H135.068L131.637 24.5739H131.529V33H129.858V21.3636ZM143.6 33H141.737L145.924 21.3636H147.953L152.14 33H150.277L146.987 23.4773H146.896L143.6 33ZM143.913 28.4432H149.958V29.9205H143.913V28.4432ZM56.1465 38.4545V53H53.959V40.3295H47.1124V53H44.9249V38.4545H56.1465ZM57.5023 53V38.4545H62.687C63.8186 38.4545 64.7561 38.6605 65.4995 39.0724C66.2428 39.4844 66.7992 40.0478 67.1685 40.7628C67.5378 41.473 67.7225 42.2732 67.7225 43.1634C67.7225 44.0582 67.5355 44.8632 67.1614 45.5781C66.7921 46.2884 66.2334 46.8518 65.4853 47.2685C64.7419 47.6804 63.8068 47.8864 62.6799 47.8864H59.1145V46.0256H62.481C63.196 46.0256 63.776 45.9025 64.2211 45.6562C64.6661 45.4053 64.9928 45.0644 65.2012 44.6335C65.4095 44.2027 65.5137 43.7126 65.5137 43.1634C65.5137 42.6141 65.4095 42.1264 65.2012 41.7003C64.9928 41.2741 64.6638 40.9403 64.214 40.6989C63.7689 40.4574 63.1818 40.3366 62.4526 40.3366H59.6969V53H57.5023ZM80.9302 45.7273C80.9302 47.2803 80.6461 48.6155 80.0779 49.733C79.5098 50.8456 78.7309 51.7027 77.7413 52.304C76.7565 52.9006 75.6367 53.1989 74.3819 53.1989C73.1225 53.1989 71.9979 52.9006 71.0083 52.304C70.0235 51.7027 69.247 50.8433 68.6788 49.7259C68.1106 48.6084 67.8265 47.2756 67.8265 45.7273C67.8265 44.1742 68.1106 42.8414 68.6788 41.7287C69.247 40.6113 70.0235 39.7543 71.0083 39.1577C71.9979 38.5563 73.1225 38.2557 74.3819 38.2557C75.6367 38.2557 76.7565 38.5563 77.7413 39.1577C78.7309 39.7543 79.5098 40.6113 80.0779 41.7287C80.6461 42.8414 80.9302 44.1742 80.9302 45.7273ZM78.7569 45.7273C78.7569 44.5436 78.5652 43.5469 78.1816 42.7372C77.8029 41.9228 77.282 41.3073 76.6191 40.8906C75.961 40.4692 75.2153 40.2585 74.3819 40.2585C73.5439 40.2585 72.7958 40.4692 72.1376 40.8906C71.4795 41.3073 70.9586 41.9228 70.5751 42.7372C70.1963 43.5469 70.0069 44.5436 70.0069 45.7273C70.0069 46.911 70.1963 47.91 70.5751 48.7244C70.9586 49.5341 71.4795 50.1496 72.1376 50.571C72.7958 50.9877 73.5439 51.196 74.3819 51.196C75.2153 51.196 75.961 50.9877 76.6191 50.571C77.282 50.1496 77.8029 49.5341 78.1816 48.7244C78.5652 47.91 78.7569 46.911 78.7569 45.7273ZM93.7473 43.1847H91.5314C91.4462 42.7112 91.2876 42.2945 91.0556 41.9347C90.8236 41.5748 90.5395 41.2694 90.2033 41.0185C89.8671 40.7675 89.4907 40.5781 89.074 40.4503C88.6621 40.3224 88.2241 40.2585 87.7601 40.2585C86.9221 40.2585 86.1716 40.4692 85.5087 40.8906C84.8506 41.312 84.3297 41.9299 83.9462 42.7443C83.5674 43.5587 83.378 44.553 83.378 45.7273C83.378 46.911 83.5674 47.91 83.9462 48.7244C84.3297 49.5388 84.8529 50.1544 85.5158 50.571C86.1787 50.9877 86.9244 51.196 87.753 51.196C88.2123 51.196 88.6479 51.1345 89.0598 51.0114C89.4765 50.8835 89.8529 50.6965 90.1891 50.4503C90.5253 50.2041 90.8094 49.9034 91.0414 49.5483C91.2781 49.1884 91.4415 48.7765 91.5314 48.3125L93.7473 48.3196C93.629 49.0346 93.3993 49.6927 93.0584 50.294C92.7222 50.8906 92.289 51.4067 91.7587 51.8423C91.2331 52.2732 90.6318 52.607 89.9547 52.8438C89.2776 53.0805 88.539 53.1989 87.7388 53.1989C86.4793 53.1989 85.3572 52.9006 84.3723 52.304C83.3875 51.7027 82.611 50.8433 82.0428 49.7259C81.4793 48.6084 81.1976 47.2756 81.1976 45.7273C81.1976 44.1742 81.4817 42.8414 82.0499 41.7287C82.6181 40.6113 83.3946 39.7543 84.3794 39.1577C85.3643 38.5563 86.4841 38.2557 87.7388 38.2557C88.5106 38.2557 89.2303 38.367 89.8979 38.5895C90.5703 38.8073 91.1739 39.1293 91.709 39.5554C92.244 39.9768 92.6867 40.4929 93.0371 41.1037C93.3875 41.7098 93.6242 42.4034 93.7473 43.1847ZM93.6561 40.3438V38.4545H104.913V40.3438H100.375V53H98.1873V40.3438H93.6561ZM117.411 45.7273C117.411 47.2803 117.127 48.6155 116.558 49.733C115.99 50.8456 115.211 51.7027 114.222 52.304C113.237 52.9006 112.117 53.1989 110.862 53.1989C109.603 53.1989 108.478 52.9006 107.489 52.304C106.504 51.7027 105.727 50.8433 105.159 49.7259C104.591 48.6084 104.307 47.2756 104.307 45.7273C104.307 44.1742 104.591 42.8414 105.159 41.7287C105.727 40.6113 106.504 39.7543 107.489 39.1577C108.478 38.5563 109.603 38.2557 110.862 38.2557C112.117 38.2557 113.237 38.5563 114.222 39.1577C115.211 39.7543 115.99 40.6113 116.558 41.7287C117.127 42.8414 117.411 44.1742 117.411 45.7273ZM115.237 45.7273C115.237 44.5436 115.046 43.5469 114.662 42.7372C114.283 41.9228 113.762 41.3073 113.1 40.8906C112.441 40.4692 111.696 40.2585 110.862 40.2585C110.024 40.2585 109.276 40.4692 108.618 40.8906C107.96 41.3073 107.439 41.9228 107.056 42.7372C106.677 43.5469 106.487 44.5436 106.487 45.7273C106.487 46.911 106.677 47.91 107.056 48.7244C107.439 49.5341 107.96 50.1496 108.618 50.571C109.276 50.9877 110.024 51.196 110.862 51.196C111.696 51.196 112.441 50.9877 113.1 50.571C113.762 50.1496 114.283 49.5341 114.662 48.7244C115.046 47.91 115.237 46.911 115.237 45.7273ZM126.776 53L121.89 46.4801H120.341V53H118.147V38.4545H120.341V44.598H121.059L126.556 38.4545H129.233L123.417 44.9673L129.454 53H126.776ZM129.487 53V38.4545H134.813C135.846 38.4545 136.7 38.625 137.377 38.9659C138.054 39.3021 138.561 39.759 138.897 40.3366C139.233 40.9096 139.401 41.5559 139.401 42.2756C139.401 42.8816 139.29 43.393 139.068 43.8097C138.845 44.2216 138.547 44.553 138.173 44.804C137.803 45.0502 137.396 45.2301 136.951 45.3438V45.4858C137.434 45.5095 137.905 45.6657 138.365 45.9545C138.829 46.2386 139.212 46.6435 139.515 47.169C139.818 47.6946 139.97 48.3338 139.97 49.0866C139.97 49.83 139.794 50.4976 139.444 51.0895C139.098 51.6766 138.563 52.143 137.839 52.4886C137.115 52.8295 136.189 53 135.062 53H129.487ZM131.681 51.1179H134.849C135.9 51.1179 136.653 50.9143 137.107 50.5071C137.562 50.0999 137.789 49.5909 137.789 48.9801C137.789 48.5208 137.673 48.0994 137.441 47.7159C137.209 47.3324 136.878 47.027 136.447 46.7997C136.021 46.5724 135.514 46.4588 134.927 46.4588H131.681V51.1179ZM131.681 44.7472H134.622C135.114 44.7472 135.557 44.6525 135.95 44.4631C136.347 44.2737 136.662 44.0085 136.894 43.6676C137.131 43.322 137.249 42.9148 137.249 42.446C137.249 41.8447 137.039 41.3404 136.617 40.9332C136.196 40.526 135.55 40.3224 134.678 40.3224H131.681V44.7472ZM141.801 53H139.472L144.706 38.4545H147.242L152.476 53H150.146L146.034 41.0966H145.921L141.801 53ZM142.192 47.304H149.749V49.1506H142.192V47.304ZM152.768 38.4545H154.942V51.0966H159.743V38.4545H161.916V51.0966H166.703V38.4545H168.869V53H152.768V38.4545ZM170.264 38.4545H172.437V49.1364H172.572L179.973 38.4545H182.004V53H179.809V42.3324H179.675L172.288 53H170.264V38.4545ZM183.205 53V38.4545H185.4V44.7756H192.651V38.4545H194.853V53H192.651V46.6577H185.4V53H183.205ZM208.684 45.7273C208.684 47.2803 208.4 48.6155 207.832 49.733C207.264 50.8456 206.485 51.7027 205.495 52.304C204.51 52.9006 203.391 53.1989 202.136 53.1989C200.876 53.1989 199.752 52.9006 198.762 52.304C197.777 51.7027 197.001 50.8433 196.433 49.7259C195.865 48.6084 195.58 47.2756 195.58 45.7273C195.58 44.1742 195.865 42.8414 196.433 41.7287C197.001 40.6113 197.777 39.7543 198.762 39.1577C199.752 38.5563 200.876 38.2557 202.136 38.2557C203.391 38.2557 204.51 38.5563 205.495 39.1577C206.485 39.7543 207.264 40.6113 207.832 41.7287C208.4 42.8414 208.684 44.1742 208.684 45.7273ZM206.511 45.7273C206.511 44.5436 206.319 43.5469 205.936 42.7372C205.557 41.9228 205.036 41.3073 204.373 40.8906C203.715 40.4692 202.969 40.2585 202.136 40.2585C201.298 40.2585 200.55 40.4692 199.892 40.8906C199.233 41.3073 198.713 41.9228 198.329 42.7372C197.95 43.5469 197.761 44.5436 197.761 45.7273C197.761 46.911 197.95 47.91 198.329 48.7244C198.713 49.5341 199.233 50.1496 199.892 50.571C200.55 50.9877 201.298 51.196 202.136 51.196C202.969 51.196 203.715 50.9877 204.373 50.571C205.036 50.1496 205.557 49.5341 205.936 48.7244C206.319 47.91 206.511 46.911 206.511 45.7273Z" fill="white"/>
<path d="M124.5 127L232.32 77.5H16.6798L124.5 127Z" fill="#0057A5"/>
<path d="M27 70C104.988 131.577 188.162 95.6572 220 70" stroke="white" stroke-width="3"/>
</svg>
    