<svg width="17" height="17" viewBox="0 0 17 17" fill="none" xmlns="http://www.w3.org/2000/svg">
<path fill-rule="evenodd" clip-rule="evenodd" d="M9.81812 0.581334C10.1169 0.592702 10.4014 0.977611 15.9506 6.58692C16.2347 6.87661 16.215 7.3463 15.914 7.61348L11.3128 11.6297L12.1818 12.5072L11.2031 13.4972L10.2947 12.5775C7.05465 15.8991 1.56465 11.686 3.78653 7.59098C4.16138 7.96976 4.26389 8.07376 4.33518 8.14609C4.4174 8.2295 4.45809 8.27078 4.82715 8.64286C3.9159 11.2416 7.29934 13.6632 9.3159 11.5875L3.52215 5.73474L4.5009 4.74474L5.22653 5.4788C9.01976 1.03959 9.27118 0.639245 9.57634 0.592937C9.61396 0.587227 9.6524 0.5869 9.6984 0.585048C9.74493 0.584129 9.78163 0.579946 9.81812 0.581334ZM6.20809 6.4688L10.3312 10.6369L14.4459 7.04536L12.5925 5.17224L9.59996 8.19848L8.62121 7.20848L11.6165 4.18505L9.76309 2.31192L6.20809 6.4688ZM0.40625 12.0938C0.40625 11.4722 0.909688 10.9688 1.53125 10.9688C2.15281 10.9688 2.65625 11.4722 2.65625 12.0938C2.65625 12.7153 2.15281 13.2188 1.53125 13.2188C0.909688 13.2188 0.40625 12.7153 0.40625 12.0938ZM0.40625 15.4688C0.40625 14.8472 0.909688 14.3438 1.53125 14.3438C2.15281 14.3438 2.65625 14.8472 2.65625 15.4688C2.65625 16.0903 2.15281 16.5938 1.53125 16.5938C0.909688 16.5938 0.40625 16.0903 0.40625 15.4688ZM4.90625 14.3438C4.28469 14.3438 3.78125 14.8472 3.78125 15.4688C3.78125 16.0903 4.28469 16.5938 4.90625 16.5938C5.52781 16.5938 6.03125 16.0903 6.03125 15.4688C6.03125 14.8472 5.52781 14.3438 4.90625 14.3438Z" fill="white"/>
</svg>
