<svg width="18" height="18" viewBox="0 0 18 18" fill="none" xmlns="http://www.w3.org/2000/svg">
<path d="M14.25 10.5C12.81 10.5 11.565 11.325 10.9425 12.525L7.4775 11.535C7.4775 11.4375 7.5 11.3475 7.5 11.25C7.5 10.6125 7.32 10.0125 7.035 9.4875L10.4175 6.6675C11.0625 7.1775 11.865 7.5 12.75 7.5C14.82 7.5 16.5 5.82 16.5 3.75C16.5 1.68 14.82 0 12.75 0C10.68 0 9 1.68 9 3.75C9 4.395 9.18 4.9875 9.465 5.5125L6.075 8.3325C5.4375 7.8225 4.635 7.5 3.75 7.5C1.68 7.5 0 9.18 0 11.25C0 13.32 1.68 15 3.75 15C5.19 15 6.435 14.175 7.0575 12.975L10.53 13.965C10.5225 14.0625 10.5 14.1525 10.5 14.25C10.5 16.32 12.18 18 14.25 18C16.32 18 18 16.32 18 14.25C18 12.18 16.32 10.5 14.25 10.5ZM12.75 1.5C13.9875 1.5 15 2.5125 15 3.75C15 4.9875 13.9875 6 12.75 6C11.5125 6 10.5 4.9875 10.5 3.75C10.5 2.5125 11.5125 1.5 12.75 1.5ZM3.75 13.5C2.5125 13.5 1.5 12.4875 1.5 11.25C1.5 10.0125 2.5125 9 3.75 9C4.9875 9 6 10.0125 6 11.25C6 12.4875 4.9875 13.5 3.75 13.5ZM14.25 16.5C13.0125 16.5 12 15.4875 12 14.25C12 13.0125 13.0125 12 14.25 12C15.4875 12 16.5 13.0125 16.5 14.25C16.5 15.4875 15.4875 16.5 14.25 16.5Z" fill="#0057A5"/>
</svg>
