<svg width="16" height="20" viewBox="0 0 16 20" fill="none" xmlns="http://www.w3.org/2000/svg">
<path d="M13.656 2.344C12.144 0.832 10.136 0 8 0C5.864 0 3.856 0.832 2.344 2.344C0.832 3.856 0 5.864 0 8C0 10.136 0.832 12.144 2.336 13.64L7.136 18.824C7.36 19.064 7.672 19.2 8 19.2C8.328 19.2 8.64 19.064 8.864 18.832L13.656 13.656C15.168 12.144 16 10.136 16 8C16 5.864 15.168 3.856 13.656 2.344ZM12.512 12.536L8 17.424L3.48 12.528C2.264 11.312 1.6 9.704 1.6 8C1.6 6.296 2.264 4.688 3.472 3.48C4.688 2.264 6.288 1.6 8 1.6C9.704 1.6 11.312 2.264 12.528 3.48C13.736 4.688 14.4 6.296 14.4 8C14.4 9.704 13.736 11.312 12.512 12.536Z" fill="white"/>
<circle cx="8" cy="8" r="3" fill="#F1E6D5"/>
</svg>
